<svg width="24" height="24" viewBox="0 0 24 24" fill="none" xmlns="http://www.w3.org/2000/svg">
<path d="M18.9167 14.71V20C18.9167 20.6904 18.357 21.25 17.6667 21.25H14.4167V17.102C14.4167 16.1355 13.6332 15.352 12.6667 15.352H11.3333C10.3668 15.352 9.58333 16.1355 9.58333 17.102V21.25H6.33333C5.64298 21.25 5.08333 20.6904 5.08333 20V14.71C5.08333 14.2643 4.72206 13.9031 4.27642 13.9031H4.25219C3.42255 13.9031 2.75 13.2305 2.75 12.4009C2.75 12.0151 2.89838 11.6442 3.1644 11.3649L11.1026 3.02978C11.5934 2.51446 12.4147 2.51225 12.9083 3.02493L20.8091 11.2321C21.092 11.5259 21.25 11.918 21.25 12.3259V12.3766C21.25 13.2197 20.5666 13.9031 19.7236 13.9031C19.2779 13.9031 18.9167 14.2643 18.9167 14.71Z" stroke="#93B7CD" stroke-width="1.5"/>
</svg>
