<svg width="26" height="26" viewBox="0 0 26 26" fill="none" xmlns="http://www.w3.org/2000/svg">
<path d="M9.75 13.8125H16.25C17.1438 13.8125 17.875 13.0813 17.875 12.1875V3.25C17.875 2.35625 17.1438 1.625 16.25 1.625H9.75C8.85625 1.625 8.125 2.35625 8.125 3.25V12.1875C8.125 13.0813 8.85625 13.8125 9.75 13.8125ZM9.75 3.25H16.25V12.1875H9.75V3.25ZM6.5 15.4375H10.5625V17.0625H6.5C5.60625 17.0625 4.875 16.3313 4.875 15.4375V6.5H6.5V15.4375ZM3.25 18.6875H7.3125V20.3125H3.25C2.35625 20.3125 1.625 19.5812 1.625 18.6875V9.75H3.25V18.6875ZM21.9375 16.25C20.6375 16.25 19.4188 17.3875 18.6875 18.2C17.9562 17.3875 16.7375 16.25 15.4375 16.25C13.325 16.25 12.1875 17.875 12.1875 19.5C12.1875 21.125 13.325 22.75 15.4375 22.75C17.55 22.75 17.9562 21.6125 18.6875 20.8C19.4188 21.6125 20.6375 22.75 21.9375 22.75C24.05 22.75 25.1875 21.125 25.1875 19.5C25.1875 17.875 24.05 16.25 21.9375 16.25ZM15.4375 21.125C14.2188 21.125 13.8125 20.2313 13.8125 19.5C13.8125 18.7687 14.2188 17.875 15.4375 17.875C16.6562 17.875 17.0625 18.7687 17.7125 19.5C17.1437 20.2313 16.1687 21.125 15.4375 21.125ZM21.9375 21.125C21.2062 21.125 20.3125 20.2313 19.6625 19.5C20.2313 18.7687 21.2062 17.875 21.9375 17.875C23.1562 17.875 23.5625 18.7687 23.5625 19.5C23.5625 20.2313 23.1562 21.125 21.9375 21.125Z" fill="#93B7CD"/>
</svg>
