<svg width="157" height="177" viewBox="0 0 157 177" fill="none" xmlns="http://www.w3.org/2000/svg">
<rect x="20" y="5" width="71" height="93" rx="16" fill="#8077C5"/>
<rect opacity="0.2" x="54.5459" width="71" height="93" rx="16" transform="rotate(25.1651 54.5459 0)" fill="#FF9228"/>
<rect x="30" y="17" width="21" height="21" rx="6" fill="white"/>
<path d="M33 53H78" stroke="white" stroke-width="5" stroke-linecap="square"/>
<path d="M33 68H78" stroke="white" stroke-width="5" stroke-linecap="square"/>
<path d="M33 83H61" stroke="white" stroke-width="5" stroke-linecap="square"/>
<circle cx="84.9511" cy="98.2721" r="22.3052" transform="rotate(28.6511 84.9511 98.2721)" fill="#423273" stroke="#8A7AB8" stroke-width="8"/>
<path d="M74.1328 118.62L66.4168 132.742" stroke="#8A7AB8" stroke-width="8" stroke-linecap="round"/>
<path d="M72.4039 122.1L69.4812 142.613L56.3596 135.649L72.4039 122.1Z" fill="#8A7AB8"/>
<path d="M53.8672 140.281L66.8542 147.173L59.2912 160.756C57.316 164.303 52.8076 165.635 49.2213 163.732C45.6351 161.829 44.329 157.41 46.3042 153.863L53.8672 140.281Z" fill="#3F2787"/>
<path d="M90.2012 93.3179L79.9475 104.066" stroke="white" stroke-width="5" stroke-linecap="round"/>
<path d="M79.7002 93.5649L90.4484 103.819" stroke="white" stroke-width="5" stroke-linecap="round"/>
<circle opacity="0.1" cx="4.2038" cy="4.2038" r="4.2038" transform="matrix(1 0 0 -1 107.375 62.4766)" fill="#27308C"/>
<circle opacity="0.2" cx="2.52228" cy="2.52228" r="2.52228" transform="matrix(1 0 0 -1 36.752 176.82)" fill="#27308C"/>
<path d="M9.91118 38.8124C8.76386 35.955 11.1401 32.927 14.1884 33.3622L19.2121 34.0793C22.2604 34.5144 23.6946 38.0862 21.7936 40.5086L18.6607 44.5007C16.7597 46.9231 12.9494 46.3792 11.802 43.5217L9.91118 38.8124Z" fill="#FF9E87"/>
<path d="M7.24412 119.96C6.23041 117.435 8.32989 114.76 11.0232 115.144C13.7165 115.529 14.9836 118.685 13.304 120.825C11.6244 122.965 8.25782 122.485 7.24412 119.96Z" fill="#FF9E87"/>
<path d="M131.226 100.31C129.255 95.4007 133.338 90.1985 138.575 90.9461C143.812 91.6936 146.276 97.8303 143.01 101.992C139.744 106.154 133.197 105.219 131.226 100.31Z" fill="#FF9E87"/>
<path opacity="0.2" d="M99.1743 149.414C97.0145 147.219 98.0405 143.509 101.021 142.736L105.933 141.462C108.914 140.689 111.614 143.433 110.793 146.4L109.44 151.292C108.619 154.259 104.894 155.226 102.734 153.031L99.1743 149.414Z" fill="#FF9E87"/>
<path opacity="0.3" d="M137.956 41.2901C134.322 46.68 134.096 30.0684 128.706 26.4342C123.316 22.8 108.342 20.5437 111.976 15.1537C115.61 9.76366 132.928 13.0564 138.318 16.6906C143.708 20.3248 141.59 35.9001 137.956 41.2901Z" fill="#03A9F4"/>
</svg>
